REM DIRINDEX 1\2,1\3
REM DIRNAME cjc039,folder01,folder02
TITLE ""
FILE "2541-2560.mp3" MP3
  TRACK 01 AUDIO
    TITLE "0:"
    INDEX 01 00:00:00
  TRACK 02 AUDIO
    TITLE "2:cjc039_4081"
    INDEX 01 00:00:25
  TRACK 03 AUDIO
    TITLE "0:"
    INDEX 01 00:01:38
  TRACK 04 AUDIO
    TITLE "3:cjc039_4082"
    INDEX 01 00:02:16
  TRACK 05 AUDIO
    TITLE "0:"
    INDEX 01 00:05:52
  TRACK 06 AUDIO
    TITLE "2:cjc039_4083"
    INDEX 01 00:07:27
  TRACK 07 AUDIO
    TITLE "0:"
    INDEX 01 00:08:50
  TRACK 08 AUDIO
    TITLE "3:cjc039_4084"
    INDEX 01 00:09:28
  TRACK 09 AUDIO
    TITLE "0:"
    INDEX 01 00:12:65
  TRACK 10 AUDIO
    TITLE "2:cjc039_4085"
    INDEX 01 00:14:43
  TRACK 11 AUDIO
    TITLE "0:"
    INDEX 01 00:15:54
  TRACK 12 AUDIO
    TITLE "3:cjc039_4086"
    INDEX 01 00:16:30
  TRACK 13 AUDIO
    TITLE "0:"
    INDEX 01 00:19:58
  TRACK 14 AUDIO
    TITLE "2:cjc039_4087"
    INDEX 01 00:21:37
  TRACK 15 AUDIO
    TITLE "0:"
    INDEX 01 00:23:08
  TRACK 16 AUDIO
    TITLE "3:cjc039_4088"
    INDEX 01 00:23:57
  TRACK 17 AUDIO
    TITLE "0:"
    INDEX 01 00:27:47
  TRACK 18 AUDIO
    TITLE "2:cjc039_4089"
    INDEX 01 00:29:25
  TRACK 19 AUDIO
    TITLE "0:"
    INDEX 01 00:30:44
  TRACK 20 AUDIO
    TITLE "3:cjc039_4090"
    INDEX 01 00:31:22
  TRACK 21 AUDIO
    TITLE "0:"
    INDEX 01 00:34:42
  TRACK 22 AUDIO
    TITLE "2:cjc039_4091"
    INDEX 01 00:36:15
  TRACK 23 AUDIO
    TITLE "0:"
    INDEX 01 00:37:38
  TRACK 24 AUDIO
    TITLE "3:cjc039_4092"
    INDEX 01 00:38:18
  TRACK 25 AUDIO
    TITLE "0:"
    INDEX 01 00:42:51
  TRACK 26 AUDIO
    TITLE "2:cjc039_4093"
    INDEX 01 00:44:26
  TRACK 27 AUDIO
    TITLE "0:"
    INDEX 01 00:45:35
  TRACK 28 AUDIO
    TITLE "3:cjc039_4094"
    INDEX 01 00:46:09
  TRACK 29 AUDIO
    TITLE "0:"
    INDEX 01 00:49:18
  TRACK 30 AUDIO
    TITLE "2:cjc039_4095"
    INDEX 01 00:50:74
  TRACK 31 AUDIO
    TITLE "0:"
    INDEX 01 00:52:20
  TRACK 32 AUDIO
    TITLE "3:cjc039_4096"
    INDEX 01 00:53:00
  TRACK 33 AUDIO
    TITLE "0:"
    INDEX 01 00:56:35
  TRACK 34 AUDIO
    TITLE "2:cjc039_4097"
    INDEX 01 00:58:17
  TRACK 35 AUDIO
    TITLE "0:"
    INDEX 01 00:59:12
  TRACK 36 AUDIO
    TITLE "3:cjc039_4098"
    INDEX 01 00:59:63
  TRACK 37 AUDIO
    TITLE "0:"
    INDEX 01 01:03:18
  TRACK 38 AUDIO
    TITLE "2:cjc039_4099"
    INDEX 01 01:04:68
  TRACK 39 AUDIO
    TITLE "0:"
    INDEX 01 01:06:30
  TRACK 40 AUDIO
    TITLE "3:cjc039_4100"
    INDEX 01 01:07:10
  TRACK 41 AUDIO
    TITLE "0:"
    INDEX 01 01:12:15
  TRACK 42 AUDIO
    TITLE "2:cjc039_4101"
    INDEX 01 01:13:69
  TRACK 43 AUDIO
    TITLE "0:"
    INDEX 01 01:15:25
  TRACK 44 AUDIO
    TITLE "3:cjc039_4102"
    INDEX 01 01:16:05
  TRACK 45 AUDIO
    TITLE "0:"
    INDEX 01 01:19:38
  TRACK 46 AUDIO
    TITLE "2:cjc039_4103"
    INDEX 01 01:21:16
  TRACK 47 AUDIO
    TITLE "0:"
    INDEX 01 01:22:46
  TRACK 48 AUDIO
    TITLE "3:cjc039_4104"
    INDEX 01 01:23:22
  TRACK 49 AUDIO
    TITLE "0:"
    INDEX 01 01:27:73
  TRACK 50 AUDIO
    TITLE "2:cjc039_4105"
    INDEX 01 01:29:41
  TRACK 51 AUDIO
    TITLE "0:"
    INDEX 01 01:30:66
  TRACK 52 AUDIO
    TITLE "3:cjc039_4106"
    INDEX 01 01:31:45
  TRACK 53 AUDIO
    TITLE "0:"
    INDEX 01 01:35:35
  TRACK 54 AUDIO
    TITLE "2:cjc039_4107"
    INDEX 01 01:37:11
  TRACK 55 AUDIO
    TITLE "0:"
    INDEX 01 01:38:38
  TRACK 56 AUDIO
    TITLE "3:cjc039_4108"
    INDEX 01 01:39:15
  TRACK 57 AUDIO
    TITLE "0:"
    INDEX 01 01:43:62
  TRACK 58 AUDIO
    TITLE "2:cjc039_4109"
    INDEX 01 01:45:40
  TRACK 59 AUDIO
    TITLE "0:"
    INDEX 01 01:46:51
  TRACK 60 AUDIO
    TITLE "3:cjc039_4110"
    INDEX 01 01:47:25
  TRACK 61 AUDIO
    TITLE "0:"
    INDEX 01 01:51:11
  TRACK 62 AUDIO
    TITLE "2:cjc039_4111"
    INDEX 01 01:52:65
  TRACK 63 AUDIO
    TITLE "0:"
    INDEX 01 01:54:11
  TRACK 64 AUDIO
    TITLE "3:cjc039_4112"
    INDEX 01 01:54:62
  TRACK 65 AUDIO
    TITLE "0:"
    INDEX 01 01:57:72
  TRACK 66 AUDIO
    TITLE "2:cjc039_4113"
    INDEX 01 01:59:51
  TRACK 67 AUDIO
    TITLE "0:"
    INDEX 01 02:00:69
  TRACK 68 AUDIO
    TITLE "3:cjc039_4114"
    INDEX 01 02:01:48
  TRACK 69 AUDIO
    TITLE "0:"
    INDEX 01 02:04:57
  TRACK 70 AUDIO
    TITLE "2:cjc039_4115"
    INDEX 01 02:06:36
  TRACK 71 AUDIO
    TITLE "0:"
    INDEX 01 02:08:00
  TRACK 72 AUDIO
    TITLE "3:cjc039_4116"
    INDEX 01 02:08:54
  TRACK 73 AUDIO
    TITLE "0:"
    INDEX 01 02:12:38
  TRACK 74 AUDIO
    TITLE "2:cjc039_4117"
    INDEX 01 02:14:16
  TRACK 75 AUDIO
    TITLE "0:"
    INDEX 01 02:15:17
  TRACK 76 AUDIO
    TITLE "3:cjc039_4118"
    INDEX 01 02:15:70
  TRACK 77 AUDIO
    TITLE "0:"
    INDEX 01 02:18:68
  TRACK 78 AUDIO
    TITLE "2:cjc039_4119"
    INDEX 01 02:20:50
  TRACK 79 AUDIO
    TITLE "0:"
    INDEX 01 02:21:73
  TRACK 80 AUDIO
    TITLE "3:cjc039_4120"
    INDEX 01 02:22:53
  TRACK 81 AUDIO
    TITLE "0:"
    INDEX 01 02:27:36
